# Blender 3.5.1
# www.blender.org
mtllib bread.mtl
o Cube
v -0.422431 0.704160 -0.395579
v 0.000000 -0.400000 0.400000
v -0.298704 0.786003 -0.279717
v 0.000000 -0.400000 -0.400000
v -0.154621 0.837452 -0.144792
v -0.870479 0.597500 -0.239240
v -0.710743 0.704160 -0.195339
v -0.502572 0.786003 -0.138125
v -0.260150 0.837452 -0.071499
v -0.773400 0.704160 0.066920
v -0.546876 0.786003 0.047320
v -0.283084 0.837452 0.024494
v -0.835103 0.340000 0.435482
v -0.806648 0.473292 0.420643
v -0.723220 0.597500 0.377139
v -0.600000 -0.400000 0.400000
v -0.800000 -0.200000 0.400000
v -0.590507 0.704160 0.307932
v -0.417551 0.786003 0.217741
v -0.800000 -0.400000 0.200000
v -0.216141 0.837452 0.112711
v -0.741421 -0.341421 0.400000
v -0.220133 0.704160 0.451178
v -0.766340 -0.366340 0.366340
v -0.155657 0.786003 0.319031
v -0.800000 -0.341421 0.341421
v -0.741421 -0.400000 0.341421
v -0.080574 0.837452 0.165143
v 0.220132 0.704160 0.451178
v -0.800000 -0.200000 -0.400000
v -0.600000 -0.400000 -0.400000
v 0.155657 0.786003 0.319031
v -0.800000 -0.400000 -0.200000
v 0.080574 0.837452 0.165143
v -0.741421 -0.341421 -0.400000
v 0.835103 0.340000 0.435482
v -0.766340 -0.366340 -0.366340
v 0.806647 0.473292 0.420644
v -0.741421 -0.400000 -0.341421
v 0.723220 0.597500 0.377139
v -0.800000 -0.341421 -0.341421
v 0.590507 0.704160 0.307933
v 0.800000 -0.400000 0.200000
v 0.417551 0.786003 0.217741
v 0.216140 0.837452 0.112711
v 0.800000 -0.200000 0.400000
v 0.600000 -0.400000 0.400000
v 0.773400 0.704160 0.066920
v 0.546876 0.786003 0.047320
v 0.800000 -0.341421 0.341421
v 0.766340 -0.366340 0.366340
v 0.283084 0.837452 0.024494
v 0.870479 0.597500 -0.239240
v 0.741421 -0.341421 0.400000
v 0.741421 -0.400000 0.341421
v 0.710744 0.704160 -0.195339
v 0.502571 0.786003 -0.138125
v 0.600000 -0.400000 -0.400000
v 0.800000 -0.200000 -0.400000
v 0.260150 0.837452 -0.071499
v 0.800000 -0.400000 -0.200000
v 0.422431 0.704160 -0.395579
v 0.298704 0.786003 -0.279717
v 0.741421 -0.341421 -0.400000
v 0.154621 0.837452 -0.144792
v 0.766340 -0.366340 -0.366340
v 0.800000 -0.341421 -0.341421
v 0.000000 0.786003 -0.332500
v 0.000000 0.837452 -0.172115
v 0.741421 -0.400000 -0.341421
v 0.000000 0.855000 0.000000
v -0.911340 0.546957 -0.250470
v -0.911340 0.473292 -0.308199
v -0.911340 0.340000 -0.341399
v -0.911340 0.277576 0.310508
v -0.911340 0.340000 0.335019
v -0.911340 0.277576 -0.325851
v -0.911340 0.597500 -0.068211
v -0.911340 0.597500 0.129238
v -0.911340 0.473292 0.282682
v -0.911340 0.619515 0.078856
v -0.698143 0.473292 0.462609
v -0.502230 0.597500 0.462609
v -0.225710 0.692137 0.462609
v -0.821777 0.277576 0.428533
v -0.733670 0.277576 0.462609
v 0.733670 0.277576 0.462609
v 0.821776 0.277576 0.428533
v 0.911340 0.277576 -0.325851
v 0.911340 0.277576 0.310508
v -0.714432 0.277576 -0.462609
v -0.736819 0.340000 -0.462609
v -0.689017 0.473292 -0.462609
v -0.548867 0.597500 -0.462609
v -0.494011 0.623744 -0.462609
v 0.714432 0.277576 -0.462609
v 0.736819 0.340000 -0.462609
v -0.043106 0.704160 -0.462609
v 0.494011 0.623743 -0.462609
v 0.043106 0.704160 -0.462609
v 0.689016 0.473292 -0.462609
v 0.548866 0.597500 -0.462609
v 0.000000 0.708686 -0.462609
v -0.764965 0.340000 0.462609
v 0.502230 0.597500 0.462609
v 0.698143 0.473292 0.462609
v 0.764965 0.340000 0.462609
v 0.225709 0.692137 0.462609
v 0.911340 0.340000 0.335018
v 0.911340 0.473292 -0.308199
v 0.911340 0.546957 -0.250470
v 0.911340 0.340000 -0.341399
v 0.911340 0.619515 0.078856
v 0.911340 0.597500 -0.068209
v 0.911340 0.597500 0.129238
v 0.911340 0.473292 0.282682
v 0.800000 0.277576 -0.400000
v 0.800000 0.277576 0.400000
v 0.000000 0.277576 0.400000
v -0.800000 0.277576 0.400000
v 0.000000 0.277576 -0.400000
v -0.800000 0.277576 -0.400000
v -0.730378 0.277576 -0.400000
vn 1.0000 -0.0000 -0.0000
vn -0.0000 -0.0000 1.0000
vn -0.0000 -1.0000 -0.0000
vn -0.0000 -0.0000 -1.0000
vn -0.2751 -0.6798 0.6798
vn -0.6798 -0.2751 0.6798
vn -0.6798 -0.6798 0.2751
vn -0.6798 -0.2751 -0.6798
vn -0.2751 -0.6798 -0.6798
vn -0.6798 -0.6798 -0.2751
vn -1.0000 -0.0000 -0.0000
vn 0.6798 -0.6798 0.2751
vn 0.6798 -0.2751 0.6798
vn 0.2751 -0.6798 0.6798
vn 0.2751 -0.6798 -0.6798
vn 0.6798 -0.2751 -0.6798
vn 0.6798 -0.6798 -0.2751
vn -0.0539 0.9508 -0.3050
vn -0.0179 0.9947 -0.1014
vn -0.0899 0.8562 -0.5088
vn -0.0482 0.9964 -0.0693
vn -0.3666 0.7662 -0.5278
vn -0.2526 0.8966 -0.3637
vn -0.1469 0.9663 -0.2115
vn -0.1951 0.9797 -0.0466
vn -0.7455 0.6423 -0.1781
vn -0.0632 0.9979 -0.0151
vn -0.5267 0.8407 -0.1258
vn -0.3449 0.9350 -0.0824
vn -0.3120 0.9201 0.2367
vn -0.1784 0.9746 0.1354
vn -0.0580 0.9973 0.0440
vn -0.4667 0.8104 0.3541
vn -0.0344 0.9954 0.0890
vn -0.2483 0.7254 0.6419
vn -0.3550 -0.1780 0.9178
vn -0.1759 0.8730 0.4549
vn -0.3550 0.1780 0.9178
vn -0.1041 0.9574 0.2693
vn -0.3135 0.4945 0.8106
vn -0.0000 0.9484 0.3171
vn -0.0000 0.9944 0.1057
vn -0.0000 0.6890 0.7248
vn -0.0000 0.8502 0.5265
vn 0.1759 0.8730 0.4549
vn 0.1041 0.9574 0.2693
vn 0.0344 0.9954 0.0890
vn 0.2483 0.7254 0.6419
vn 0.6383 0.5984 0.4843
vn 0.0580 0.9973 0.0440
vn 0.4667 0.8104 0.3541
vn 0.7751 -0.2309 0.5882
vn 0.3120 0.9201 0.2367
vn 0.7751 0.2309 0.5882
vn 0.1784 0.9746 0.1354
vn 0.1951 0.9797 -0.0466
vn 0.0632 0.9979 -0.0151
vn 0.5267 0.8407 -0.1258
vn 0.3449 0.9350 -0.0824
vn 0.3666 0.7662 -0.5278
vn 0.2526 0.8966 -0.3637
vn 0.1469 0.9663 -0.2115
vn 0.4797 0.5412 -0.6906
vn 0.0482 0.9964 -0.0693
vn 0.0179 0.9947 -0.1014
vn 0.1245 0.6984 -0.7048
vn 0.0899 0.8562 -0.5088
vn 0.0539 0.9508 -0.3050
vn 0.3135 0.4945 0.8106
vn -0.7751 0.2309 0.5882
vn -0.5589 0.2004 -0.8047
vn 0.5589 -0.2004 -0.8047
vn -0.6383 0.5984 0.4843
vn 0.3550 -0.1780 0.9178
vn 0.3550 0.1780 0.9178
vn -0.4797 0.5412 -0.6906
vn 0.5589 0.2004 -0.8047
vn -0.5589 -0.2004 -0.8047
vn -0.1245 0.6984 -0.7048
vn 0.7455 0.6423 -0.1781
vn -0.7751 -0.2309 0.5882
vt 0.636364 0.250000
vt 0.375000 1.000000
vt 0.375000 0.750000
vt 0.125000 0.750000
vt 0.636364 0.166667
vt 0.375000 0.500000
vt 0.375000 0.250000
vt 0.125000 0.500000
vt 0.636364 0.083333
vt 0.545455 0.333333
vt 0.545455 0.250000
vt 0.545455 0.166667
vt 0.545455 0.083333
vt 0.454545 0.250000
vt 0.454545 0.166667
vt 0.454545 0.083333
vt 0.363636 0.500000
vt 0.363636 0.416667
vt 0.363636 0.333333
vt 0.187500 0.750000
vt 0.375000 0.937500
vt 0.437500 1.000000
vt 0.437500 0.000000
vt 0.363636 0.250000
vt 0.363636 0.166667
vt 0.125000 0.687500
vt 0.375000 0.062500
vt 0.363636 0.083333
vt 0.393306 0.981694
vt 0.393306 0.000000
vt 0.272727 0.250000
vt 0.295173 0.576321
vt 0.272727 0.166667
vt 0.125000 0.731694
vt 0.393306 0.018306
vt 0.375000 0.981694
vt 0.143306 0.731694
vt 0.272727 0.083333
vt 0.181818 0.250000
vt 0.437500 0.250000
vt 0.375000 0.312500
vt 0.187500 0.500000
vt 0.181818 0.166667
vt 0.125000 0.562500
vt 0.375000 0.187500
vt 0.181818 0.083333
vt 0.393306 0.268306
vt 0.143306 0.500000
vt 0.090909 0.500000
vt 0.298679 0.329827
vt 0.090909 0.416667
vt 0.143306 0.518306
vt 0.375000 0.231694
vt 0.090909 0.333333
vt 0.393306 0.231694
vt 0.090909 0.250000
vt 0.375000 0.687500
vt 0.090909 0.166667
vt 0.090909 0.083333
vt 0.437500 0.750000
vt 0.375000 0.812500
vt 0.312500 0.750000
vt 0.000000 0.250000
vt 1.000000 0.250000
vt 0.000000 0.166667
vt 1.000000 0.166667
vt 0.393306 0.731694
vt 0.375000 0.746494
vt 0.000000 0.083333
vt 1.000000 0.083333
vt 0.909091 0.333333
vt 0.393306 0.768306
vt 0.356694 0.750000
vt 0.356694 0.731694
vt 0.909091 0.250000
vt 0.909091 0.166667
vt 0.375000 0.437500
vt 0.312500 0.500000
vt 0.437500 0.500000
vt 0.909091 0.083333
vt 0.375000 0.562500
vt 0.818182 0.250000
vt 0.818182 0.166667
vt 0.393306 0.481694
vt 0.818182 0.083333
vt 0.378506 0.500000
vt 0.393306 0.518306
vt 0.727273 0.166667
vt 0.727273 0.083333
vt 0.375000 0.481694
vt 0.356694 0.518306
vt 0.681818 0.000000
vt 0.590909 0.000000
vt 0.500000 0.000000
vt 0.409091 0.000000
vt 0.318182 0.000000
vt 0.227273 0.000000
vt 0.136364 0.000000
vt 0.045455 0.000000
vt 0.954545 0.000000
vt 0.863636 0.000000
vt 0.772727 0.000000
vt 0.544088 0.557321
vt 0.545455 0.367243
vt 0.566214 0.541722
vt 0.559201 0.416667
vt 0.606250 0.532752
vt 0.566369 0.500000
vt 0.625000 0.708901
vt 0.395626 0.539027
vt 0.606250 0.715524
vt 0.390432 0.500000
vt 0.625000 0.536953
vt 0.563074 0.539027
vt 0.497048 0.333333
vt 0.528906 0.606569
vt 0.528906 0.659921
vt 0.439985 0.333333
vt 0.566214 0.701383
vt 0.401731 0.416667
vt 0.454545 0.316133
vt 0.522294 0.646307
vt 0.344140 0.416667
vt 0.566214 0.779242
vt 0.319348 0.333333
vt 0.528906 0.806114
vt 0.272727 0.259394
vt 0.500481 0.844042
vt 0.637285 0.740793
vt 0.363636 0.539027
vt 0.348096 0.539027
vt 0.625000 0.774369
vt 0.649369 0.750000
vt 0.625000 0.975631
vt 0.850631 0.750000
vt 0.106450 0.539027
vt 0.862715 0.740792
vt 0.090909 0.539027
vt 0.891471 0.539027
vt 0.625000 0.213047
vt 0.875000 0.536953
vt 0.058919 0.539027
vt 0.625000 0.041099
vt 0.875000 0.708901
vt 0.652008 0.500000
vt 0.625000 0.472992
vt 0.607689 0.539027
vt 0.606250 0.476063
vt 0.605280 0.500000
vt 0.610519 0.416667
vt 0.566214 0.469506
vt 0.628255 0.333333
vt 0.528906 0.450283
vt 0.521024 0.442759
vt 0.636364 0.312829
vt 0.846856 0.539027
vt 0.847992 0.500000
vt 0.625000 0.277008
vt 0.849265 0.500000
vt 0.606250 0.273937
vt 0.496869 0.380912
vt 0.717996 0.250000
vt 0.818182 0.312829
vt 0.521024 0.307241
vt 0.736549 0.250000
vt 0.496869 0.369088
vt 0.844026 0.416667
vt 0.566214 0.280494
vt 0.826290 0.333333
vt 0.528906 0.299717
vt 0.727273 0.245391
vt 0.495510 0.375000
vt 0.351463 0.500000
vt 0.606250 0.770077
vt 0.135198 0.333333
vt 0.528906 0.943886
vt 0.566214 0.970758
vt 0.110405 0.416667
vt 0.606250 0.979923
vt 0.103082 0.500000
vt 0.181818 0.259394
vt 0.500481 0.905958
vt 0.064113 0.500000
vt 0.606250 0.034476
vt 0.566214 0.208277
vt 0.895344 0.416667
vt 0.544088 0.192679
vt 0.909091 0.367243
vt 0.606250 0.217248
vt 0.888177 0.500000
vt 0.000000 0.316133
vt 1.000000 0.316133
vt 0.522294 0.103693
vt 0.528906 0.143431
vt 0.957498 0.333333
vt 0.014561 0.333333
vt 0.528906 0.090079
vt 0.052814 0.416667
vt 0.566214 0.048617
vt 0.586742 0.500000
vt 0.859729 0.516917
vt 0.586742 0.750000
vt 0.859728 0.733083
vt 0.586742 1.000000
vt 0.586742 0.750000
vt 0.750000 0.733083
vt 0.586742 1.000000
vt 0.586742 0.000000
vt 0.640271 0.733083
vt 0.586742 0.500000
vt 0.586742 0.250000
vt 0.750000 0.516917
vt 0.586742 0.250000
vt 0.640272 0.516917
vt 0.586743 0.271757
vt 0.649821 0.516917
s 0
usemtl Material.001
f 46/60/1 50/67/1 43/57/1 61/81/1 67/87/1 59/79/1 117/200/1 118/202/1
f 119/204/2 2/2/2 47/61/2 54/72/2 46/60/2 118/202/2
f 17/22/2 22/29/2 16/21/2 2/3/2 119/205/2 120/207/2
f 39/52/3 31/42/3 4/6/3 2/3/3 16/20/3 27/37/3 20/26/3 33/44/3
f 119/205/1 2/3/1 4/6/1 121/210/1
f 4/6/4 31/41/4 35/47/4 30/40/4 122/213/4 123/215/4 121/210/4
f 16/21/5 22/29/5 24/32/5 27/36/5
f 17/23/6 26/35/6 24/32/6 22/30/6
f 20/26/7 27/37/7 24/32/7 26/34/7
f 30/40/8 35/47/8 37/50/8 41/55/8
f 31/42/9 39/52/9 37/50/9 35/48/9
f 33/45/10 41/55/10 37/50/10 39/53/10
f 33/45/11 20/27/11 26/35/11 17/23/11 120/208/11 122/213/11 30/40/11 41/55/11
f 43/57/12 50/67/12 51/68/12 55/74/12
f 46/60/13 54/72/13 51/68/13 50/67/13
f 47/62/14 55/74/14 51/68/14 54/73/14
f 59/79/4 64/84/4 58/77/4 4/7/4 121/211/4 117/200/4
f 58/77/15 64/84/15 66/86/15 70/90/15
f 59/79/16 67/87/16 66/86/16 64/84/16
f 61/81/17 70/91/17 66/86/17 67/87/17
f 61/81/3 43/57/3 55/74/3 47/62/3 2/4/3 4/8/3 58/78/3 70/91/3
f 69/89/18 68/88/18 3/5/18 5/9/18
f 71/92/19 69/89/19 5/9/19
f 103/171/20 98/162/20 1/1/20 3/5/20 68/88/20
f 71/93/21 5/9/21 9/13/21
f 95/155/22 94/152/22 6/10/22 7/11/22 1/1/22
f 3/5/23 1/1/23 7/11/23 8/12/23
f 5/9/24 3/5/24 8/12/24 9/13/24
f 9/13/25 8/12/25 11/15/25 12/16/25
f 6/10/26 72/104/26 78/115/26
f 71/94/27 9/13/27 12/16/27
f 10/14/28 7/11/28 6/10/28 78/115/28 81/121/28
f 8/12/29 7/11/29 10/14/29 11/15/29
f 11/15/30 10/14/30 18/24/30 19/25/30
f 12/16/31 11/15/31 19/25/31 21/28/31
f 71/95/32 12/16/32 21/28/32
f 81/121/33 79/118/33 15/19/33 18/24/33 10/14/33
f 71/96/34 21/28/34 28/38/34
f 23/31/35 18/24/35 15/19/35 83/125/35 84/127/35
f 13/17/36 85/130/36 86/131/36 104/173/36
f 19/25/37 18/24/37 23/31/37 25/33/37
f 14/18/38 13/17/38 104/173/38 82/123/38
f 21/28/39 19/25/39 25/33/39 28/38/39
f 15/19/40 14/18/40 82/123/40 83/125/40
f 28/38/41 25/33/41 32/43/41 34/46/41
f 71/97/42 28/38/42 34/46/42
f 23/31/43 84/127/43 108/181/43 29/39/43
f 25/33/44 23/31/44 29/39/44 32/43/44
f 32/43/45 29/39/45 42/56/45 44/58/45
f 34/46/46 32/43/46 44/58/46 45/59/46
f 71/98/47 34/46/47 45/59/47
f 108/181/48 105/175/48 40/54/48 42/56/48 29/39/48
f 40/54/49 38/51/49 116/198/49 115/196/49
f 71/99/50 45/59/50 52/69/50
f 48/63/51 42/56/51 40/54/51 115/196/51 113/191/51
f 36/49/52 88/138/52 90/142/52 109/183/52
f 44/58/53 42/56/53 48/63/53 49/65/53
f 38/51/54 36/49/54 109/183/54 116/198/54
f 45/59/55 44/58/55 49/65/55 52/69/55
f 52/70/56 49/66/56 57/76/56 60/80/56
f 71/100/57 52/70/57 60/80/57
f 113/192/58 114/195/58 53/71/58 56/75/58 48/64/58
f 49/66/59 48/64/59 56/75/59 57/76/59
f 62/82/60 56/75/60 53/71/60 102/169/60 99/163/60
f 57/76/61 56/75/61 62/82/61 63/83/61
f 60/80/62 57/76/62 63/83/62 65/85/62
f 111/188/63 110/186/63 101/167/63 102/169/63 53/71/63
f 71/101/64 60/80/64 65/85/64
f 71/102/65 65/85/65 69/89/65
f 62/82/66 99/163/66 100/165/66
f 68/88/67 63/83/67 62/82/67 100/165/67 103/171/67
f 65/85/68 63/83/68 68/88/68 69/89/68
f 105/175/69 106/178/69 38/51/69 40/54/69
f 107/179/2 106/177/2 105/176/2 108/182/2 84/128/2 83/126/2 82/124/2 104/174/2 86/132/2 87/134/2
f 80/120/70 76/112/70 13/17/70 14/18/70
f 79/117/11 81/122/11 78/116/11 72/103/11 73/105/11 74/107/11 77/113/11 75/109/11 76/111/11 80/119/11
f 93/150/71 92/149/71 74/108/71 73/106/71
f 112/190/72 89/139/72 96/156/72 97/159/72
f 79/118/73 80/120/73 14/18/73 15/19/73
f 116/199/1 109/184/1 90/143/1 89/140/1 112/189/1 110/185/1 111/187/1 114/194/1 113/193/1 115/197/1
f 123/216/3 91/145/3 96/157/3 89/141/3 90/144/3 88/137/3 118/203/3 117/201/3 121/212/3
f 118/203/3 88/137/3 87/135/3 86/133/3 85/129/3 75/109/3 77/113/3 91/145/3 123/216/3 122/214/3 120/209/3 119/206/3
f 107/180/74 87/136/74 88/138/74 36/49/74
f 106/178/75 107/180/75 36/49/75 38/51/75
f 93/150/76 73/106/76 72/104/76 6/10/76 94/152/76
f 110/186/77 112/190/77 97/159/77 101/167/77
f 102/170/4 101/168/4 97/160/4 96/158/4 91/146/4 92/148/4 93/151/4 94/153/4 95/154/4 98/161/4 103/172/4 100/166/4 99/164/4
f 92/149/78 91/147/78 77/114/78 74/108/78
f 98/162/79 95/155/79 1/1/79
f 114/195/80 111/188/80 53/71/80
f 76/112/81 75/110/81 85/130/81 13/17/81
