# Blender 3.5.1
# www.blender.org
mtllib pizza.mtl
o Circle
v -0.081154 0.066878 -0.204807
v -0.246918 0.057740 0.679749
v -0.823835 0.054322 0.303394
v -0.965699 0.058259 -0.370658
v -0.589409 0.067246 -0.947556
v 0.084610 0.076017 -1.089362
v 0.661526 0.079435 -0.713007
v 0.803390 0.075497 -0.038955
v 0.427100 0.066511 0.537943
v -0.825221 0.177173 0.304403
v -0.248305 0.180591 0.680758
v -0.082540 0.189729 -0.203797
v -0.967085 0.181110 -0.369648
v -0.590795 0.190097 -0.946547
v 0.083224 0.198868 -1.088353
v 0.660140 0.202286 -0.711998
v 0.802004 0.198348 -0.037946
v 0.425714 0.189362 0.538953
v -0.056525 0.047888 -0.209069
v 0.686155 0.060445 -0.717269
v 0.122086 0.048623 -1.143980
v 0.699002 0.052041 -0.767625
v 0.102471 0.055627 -1.131861
v 0.679387 0.059045 -0.755506
v 0.674539 0.046389 -0.769051
v 0.816404 0.042451 -0.094999
v 0.691130 0.061492 -0.753072
v 0.832994 0.057554 -0.079020
v -0.078768 0.071073 -0.203468
v 0.663912 0.083629 -0.711669
v 0.834498 0.049337 -0.049324
v 0.458207 0.040351 0.527574
v 0.845371 0.061093 -0.051463
v 0.469081 0.052107 0.525436
v -0.213169 0.032671 0.673397
v 0.460849 0.041442 0.531591
v -0.207074 0.045593 0.671286
v 0.466945 0.054364 0.529480
v -0.230537 0.032119 0.687007
v -0.807453 0.028702 0.310652
v -0.812165 0.034598 0.311126
v -0.235249 0.038016 0.687481
v -0.983668 0.032442 -0.339422
v -0.607378 0.041428 -0.916321
v -0.981464 0.039398 -0.347283
v -0.605174 0.048385 -0.924181
v -0.969604 0.057385 -0.388267
v -0.593314 0.066371 -0.965165
v -0.814488 0.028276 0.316266
v -0.956352 0.032214 -0.357786
v -0.850562 0.052080 0.328143
v -0.992426 0.056017 -0.345909
v -0.592141 0.042207 -0.936252
v 0.081878 0.050978 -1.078058
v -0.589064 0.019527 -0.964842
v 0.084954 0.028298 -1.106647
v -0.589575 0.043955 -0.983384
v 0.084444 0.052726 -1.125190
vn -0.0113 0.9999 0.0082
vn 0.0113 -0.9999 -0.0082
vn -0.5463 -0.0130 0.8375
vn 0.2059 -0.0057 0.9785
vn 0.8375 0.0050 0.5464
vn 0.9785 0.0127 -0.2059
vn -0.2059 0.0057 -0.9785
vn -0.8375 -0.0050 -0.5464
vn -0.9785 -0.0127 0.2059
vn 0.5463 0.0130 -0.8375
vn -0.4918 -0.4739 -0.7304
vn -0.2051 -0.9240 0.3227
vn 0.5179 0.3116 -0.7967
vn -0.7918 -0.5886 0.1632
vn 0.9438 0.2652 -0.1971
vn -0.4929 0.5061 -0.7078
vn -0.6594 -0.6099 -0.4396
vn 0.8182 0.2056 0.5369
vn -0.2054 -0.0287 -0.9782
vn 0.2059 -0.0058 0.9785
vn 0.5425 0.1110 -0.8327
vn -0.5463 -0.0105 0.8375
vn 0.8344 0.0792 0.5455
vn -0.8375 0.0235 -0.5459
vn -0.8342 0.0986 -0.5426
vn 0.9496 0.2427 -0.1984
vn -0.9518 0.2311 0.2017
vn 0.1850 0.3875 0.9031
vn 0.1414 -0.7681 0.6245
vn -0.2029 0.2377 -0.9499
vt 0.500000 0.500000
vt 0.500000 1.000000
vt 0.146447 0.853553
vt 0.000000 0.500000
vt 0.146447 0.146447
vt 0.500000 0.000000
vt 0.853553 0.146447
vt 1.000000 0.500000
vt 0.853553 0.853553
vt 0.146447 0.853553
vt 0.500000 1.000000
vt 0.500000 0.500000
vt 0.000000 0.500000
vt 0.146447 0.146447
vt 0.500000 0.000000
vt 0.853553 0.146447
vt 1.000000 0.500000
vt 0.853553 0.853553
vt 0.500000 0.500000
vt 0.853553 0.146447
vt 0.500000 0.000000
vt 0.853553 0.146447
vt 0.500000 0.000000
vt 0.853553 0.146447
vt 0.853553 0.146447
vt 1.000000 0.500000
vt 0.853553 0.146447
vt 1.000000 0.500000
vt 0.500000 0.500000
vt 0.853553 0.146447
vt 1.000000 0.500000
vt 0.853553 0.853553
vt 1.000000 0.500000
vt 0.853553 0.853553
vt 0.500000 1.000000
vt 0.853553 0.853553
vt 0.500000 1.000000
vt 0.853553 0.853553
vt 0.500000 1.000000
vt 0.146447 0.853553
vt 0.146447 0.853553
vt 0.500000 1.000000
vt 0.000000 0.500000
vt 0.146447 0.146447
vt 0.000000 0.500000
vt 0.146447 0.146447
vt 0.000000 0.500000
vt 0.146447 0.146447
vt 0.146447 0.853553
vt 0.000000 0.500000
vt 0.146447 0.853553
vt 0.000000 0.500000
vt 0.146447 0.146447
vt 0.500000 0.000000
vt 0.146447 0.146447
vt 0.500000 0.000000
vt 0.146447 0.146447
vt 0.500000 0.000000
s 0
usemtl Material.001
f 1/1/1 3/3/1 2/2/1
f 1/1/1 4/4/1 3/3/1
f 1/1/1 5/5/1 4/4/1
f 1/1/1 6/6/1 5/5/1
f 1/1/1 7/7/1 6/6/1
f 1/1/1 8/8/1 7/7/1
f 1/1/1 9/9/1 8/8/1
f 1/1/1 2/2/1 9/9/1
f 12/12/2 11/11/2 10/10/2
f 12/12/2 10/10/2 13/13/2
f 12/12/2 13/13/2 14/14/2
f 12/12/2 14/14/2 15/15/2
f 12/12/2 15/15/2 16/16/2
f 12/12/2 16/16/2 17/17/2
f 12/12/2 17/17/2 18/18/2
f 12/12/2 18/18/2 11/11/2
f 6/6/3 7/7/3 16/16/3 15/15/3
f 5/5/4 6/6/4 15/15/4 14/14/4
f 4/4/5 5/5/5 14/14/5 13/13/5
f 3/3/6 4/4/6 13/13/6 10/10/6
f 9/9/7 2/2/7 11/11/7 18/18/7
f 8/8/8 9/9/8 18/18/8 17/17/8
f 7/7/9 8/8/9 17/17/9 16/16/9
f 2/2/10 3/3/10 10/10/10 11/11/10
f 1/1/11 7/7/11 20/20/11 19/19/11
f 7/7/12 6/6/12 21/21/12 22/22/12
f 15/15/13 16/16/13 24/24/13 23/23/13
f 8/8/14 7/7/14 25/25/14 26/26/14
f 16/16/15 17/17/15 28/28/15 27/27/15
f 7/7/16 1/1/16 29/29/16 30/30/16
f 9/9/17 8/8/17 31/31/17 32/32/17
f 17/17/18 18/18/18 34/34/18 33/33/18
f 2/2/19 9/9/19 36/36/19 35/35/19
f 18/18/20 11/11/20 37/37/20 38/38/20
f 3/3/21 2/2/21 39/39/21 40/40/21
f 11/11/22 10/10/22 41/41/22 42/42/22
f 5/5/23 4/4/23 43/43/23 44/44/23
f 4/4/24 5/5/24 46/46/24 45/45/24
f 13/13/25 14/14/25 48/48/25 47/47/25
f 4/4/26 3/3/26 49/49/26 50/50/26
f 10/10/27 13/13/27 52/52/27 51/51/27
f 6/6/28 5/5/28 53/53/28 54/54/28
f 54/54/29 53/53/29 55/55/29 56/56/29
f 14/14/30 15/15/30 58/58/30 57/57/30
o Circle.001
v 0.538549 -0.022887 -0.662543
v 0.529641 -0.035129 -0.613224
v 0.539967 -0.033235 -0.611926
v 0.550238 -0.030944 -0.612573
v 0.560060 -0.028342 -0.615141
v 0.569056 -0.025532 -0.619530
v 0.576879 -0.022619 -0.625572
v 0.583229 -0.019717 -0.633035
v 0.587862 -0.016937 -0.641631
v 0.590600 -0.014386 -0.651032
v 0.591337 -0.012161 -0.660875
v 0.590046 -0.010348 -0.670782
v 0.586776 -0.009017 -0.680372
v 0.581653 -0.008220 -0.689277
v 0.574873 -0.007986 -0.697155
v 0.566697 -0.008324 -0.703703
v 0.557440 -0.009222 -0.708669
v 0.547456 -0.010646 -0.711862
v 0.537130 -0.012540 -0.713161
v 0.526859 -0.014831 -0.712513
v 0.517037 -0.017432 -0.709946
v 0.508042 -0.020243 -0.705557
v 0.500218 -0.023155 -0.699515
v 0.493868 -0.026057 -0.692052
v 0.489235 -0.028837 -0.683455
v 0.486497 -0.031389 -0.674055
v 0.485760 -0.033614 -0.664212
v 0.487051 -0.035426 -0.654305
v 0.490321 -0.036757 -0.644714
v 0.495444 -0.037555 -0.635809
v 0.502224 -0.037789 -0.627931
v 0.510400 -0.037450 -0.621384
v 0.519657 -0.036552 -0.616418
vn -0.2012 0.9586 0.2016
vt 0.500000 0.500000
vt 0.500000 1.000000
vt 0.402455 0.990393
vt 0.308658 0.961940
vt 0.222215 0.915735
vt 0.146447 0.853553
vt 0.084265 0.777785
vt 0.038060 0.691342
vt 0.009607 0.597545
vt 0.000000 0.500000
vt 0.009607 0.402455
vt 0.038060 0.308658
vt 0.084265 0.222215
vt 0.146447 0.146447
vt 0.222215 0.084265
vt 0.308658 0.038060
vt 0.402455 0.009607
vt 0.500000 0.000000
vt 0.597545 0.009607
vt 0.691342 0.038060
vt 0.777785 0.084265
vt 0.853553 0.146447
vt 0.915735 0.222215
vt 0.961940 0.308658
vt 0.990393 0.402455
vt 1.000000 0.500000
vt 0.990393 0.597545
vt 0.961940 0.691342
vt 0.915735 0.777785
vt 0.853553 0.853553
vt 0.777785 0.915735
vt 0.691342 0.961940
vt 0.597545 0.990393
s 0
usemtl Material.002
f 59/59/31 60/60/31 61/61/31
f 59/59/31 61/61/31 62/62/31
f 59/59/31 62/62/31 63/63/31
f 59/59/31 63/63/31 64/64/31
f 59/59/31 64/64/31 65/65/31
f 59/59/31 65/65/31 66/66/31
f 59/59/31 66/66/31 67/67/31
f 59/59/31 67/67/31 68/68/31
f 59/59/31 68/68/31 69/69/31
f 59/59/31 69/69/31 70/70/31
f 59/59/31 70/70/31 71/71/31
f 59/59/31 71/71/31 72/72/31
f 59/59/31 72/72/31 73/73/31
f 59/59/31 73/73/31 74/74/31
f 59/59/31 74/74/31 75/75/31
f 59/59/31 75/75/31 76/76/31
f 59/59/31 76/76/31 77/77/31
f 59/59/31 77/77/31 78/78/31
f 59/59/31 78/78/31 79/79/31
f 59/59/31 79/79/31 80/80/31
f 59/59/31 80/80/31 81/81/31
f 59/59/31 81/81/31 82/82/31
f 59/59/31 82/82/31 83/83/31
f 59/59/31 83/83/31 84/84/31
f 59/59/31 84/84/31 85/85/31
f 59/59/31 85/85/31 86/86/31
f 59/59/31 86/86/31 87/87/31
f 59/59/31 87/87/31 88/88/31
f 59/59/31 88/88/31 89/89/31
f 59/59/31 89/89/31 90/90/31
f 59/59/31 90/90/31 91/91/31
f 59/59/31 91/91/31 60/60/31
